-----------------------------------------------------------
|Government Engaging in Every Crime Imaginable - Alex Jones|
-----------------------------------------------------------


 -------- 
 | PLOT |
 --------

On the Tuesday, April 3.2012 edition of the Alex Jones Show, Alex confronts head-on the ongoing effort by the global elite to take down the Constitution. Obama directly criticized the Constitution on Monday as part of an orchestrated push to legitimize his unconstitutional Obamacare agenda. Minions of the global elite are now coming out of the woodwork in an effort to neuter the Second Amendment under cover of the inflammatory Trayvon Martin case. Alex covers these explosive issues and much more on today's info-packed show.


----------
 | INFO |
----------
Video:
------
ID : 1
Format : AVC
Format/Info : Advanced Video Codec
Format profile : Baseline@L3.0
Format settings, CABAC : No
Format settings, ReFrames : 1 frame
Codec ID : avc1
Codec ID/Info : Advanced Video Coding
Duration : 1h 7mn
Bit rate : 487 Kbps
Maximum bit rate : 1 861 Kbps
Width : 640 pixels
Height : 360 pixels
Display aspect ratio : 16:9
Frame rate mode : Constant
Frame rate : 29.970 fps
Color space : YUV
Chroma subsampling : 4:2:0
Bit depth : 8 bits
Scan type : Progressive
Bits/(Pixel*Frame) : 0.071
Stream size : 235 MiB (83%)
Audio:
------
ID : 2
Format : AAC
Format/Info : Advanced Audio Codec
Format profile : LC
Codec ID : 40
Duration : 1h 7mn
Bit rate mode : Variable
Bit rate : 96.0 Kbps
Maximum bit rate : 155 Kbps
Channel(s) : 2 channels
Channel positions : Front: L R
Sampling rate : 44.1 KHz
Compression mode : Lossy
Stream size : 46.2 MiB (16%)